<svg height="512" width="512" xmlns="http://www.w3.org/2000/svg"><path d="m235.793457 20.9389935-91.8156738 137.6740112v87.2750244h-56.2757797v-87.2751465l-87.7020035-137.6738891h63.2502899l55.7678528 88.6458817 56.2244568-88.6458817zm94.5010071 174.9245471h-101.8616638l-20.7168121 50.0244904h-45.1060944l95.3815918-224.9490356h46.1360474l91.5108948 224.9490356h-48.1963501zm-16.921051-44.7335205-31.2258606-82.5503616-34.8368378 82.5503616zm-225.6710587 119.4595795v220.471405h47.3023605v-152.0786132l49.5055237 102.2188416h37.2337494l51.1964111-105.8118896v155.6254272h45.3786011v-220.425171h-61.959259l-54.977951 99.7063904-52.3599548-99.7063904zm424.2976456 172.6117554h-116.3615723v-172.6117554h-48.1963501v219.5221863l164.5579224.0001831z"/></svg>